HIERARCHY
ROOT root
{
	OFFSET 0.000000 0.000000 0.000000
	CHANNELS 6 Xposition Yposition Zposition Zrotation Yrotation Xrotation
	JOINT lhip
	{
		OFFSET 0.058581 -0.082280 -0.017664
		CHANNELS 3 Zrotation Yrotation Xrotation
		JOINT lknee
		{
			OFFSET 0.043451 -0.386469 0.008037
			CHANNELS 3 Zrotation Yrotation Xrotation
			JOINT lankle
			{
				OFFSET -0.014790 -0.426874 -0.037428
				CHANNELS 3 Zrotation Yrotation Xrotation
				JOINT ltoe
				{
					OFFSET 0.041054 -0.060286 0.122042
					CHANNELS 3 Zrotation Yrotation Xrotation
					End Site
					{
						OFFSET 0.000000 0.000000 0.000000
					}
				}
			}
		}
	}
	JOINT rhip
	{
		OFFSET -0.060310 -0.090513 -0.013543
		CHANNELS 3 Zrotation Yrotation Xrotation
		JOINT rknee
		{
			OFFSET -0.043257 -0.383688 -0.004843
			CHANNELS 3 Zrotation Yrotation Xrotation
			JOINT rankle
			{
				OFFSET 0.019056 -0.420046 -0.034562
				CHANNELS 3 Zrotation Yrotation Xrotation
				JOINT rtoe
				{
					OFFSET -0.034840 -0.062106 0.130323
					CHANNELS 3 Zrotation Yrotation Xrotation
					End Site
					{
						OFFSET 0.000000 0.000000 0.000000
					}
				}
			}
		}
	}
	JOINT lowerback
	{
		OFFSET 0.004439 0.124404 -0.038385
		CHANNELS 3 Zrotation Yrotation Xrotation
		JOINT upperback
		{
			OFFSET 0.004488 0.137956 0.026820
			CHANNELS 3 Zrotation Yrotation Xrotation
			JOINT chest
			{
				OFFSET -0.002265 0.056032 0.002855
				CHANNELS 3 Zrotation Yrotation Xrotation
				JOINT lowerneck
				{
					OFFSET -0.013390 0.211636 -0.033468
					CHANNELS 3 Zrotation Yrotation Xrotation
					JOINT upperneck
					{
						OFFSET 0.010113 0.088937 0.050410
						CHANNELS 3 Zrotation Yrotation Xrotation
						End Site
						{
							OFFSET 0.000000 0.000000 0.000000
						}
					}
				}
				JOINT lclavicle
				{
					OFFSET 0.071702 0.114000 -0.018898
					CHANNELS 3 Zrotation Yrotation Xrotation
					JOINT lshoulder
					{
						OFFSET 0.122921 0.045205 -0.019046
						CHANNELS 3 Zrotation Yrotation Xrotation
						JOINT lelbow
						{
							OFFSET 0.255332 -0.015649 -0.022946
							CHANNELS 3 Zrotation Yrotation Xrotation
							JOINT lwrist
							{
								OFFSET 0.265709 0.012698 -0.007375
								CHANNELS 3 Zrotation Yrotation Xrotation
								End Site
								{
									OFFSET 0.000000 0.000000 0.000000
								}
							}
						}
					}
				}
				JOINT rclavicle
				{
					OFFSET -0.082954 0.112472 -0.023707
					CHANNELS 3 Zrotation Yrotation Xrotation
					JOINT rshoulder
					{
						OFFSET -0.113228 0.046853 -0.008472
						CHANNELS 3 Zrotation Yrotation Xrotation
						JOINT relbow
						{
							OFFSET -0.260127 -0.014369 -0.031269
							CHANNELS 3 Zrotation Yrotation Xrotation
							JOINT rwrist
							{
								OFFSET -0.269108 0.006794 -0.006027
								CHANNELS 3 Zrotation Yrotation Xrotation
								End Site
								{
									OFFSET 0.000000 0.000000 0.000000
								}
							}
						}
					}
				}
			}
		}
	}
}
MOTION
Frames: 5
Frame Time: 0.033333
0.017780 0.478925 1.007346 179.076247 -0.484781 83.276680 6.972844 3.288423 7.680882 -5.531552 -8.295266 1.656928 -4.316986 11.540027 -4.615524 0.000000 -0.000000 0.000000 -4.404659 -2.723893 6.593484 3.146299 0.611046 7.080657 3.903051 -8.908263 -7.508025 0.000000 -0.000000 0.000000 -1.037922 -0.586388 6.280770 -4.090171 1.081720 1.238921 -0.067623 1.131080 -0.458703 -0.791396 -5.667327 -0.612227 8.040346 0.712468 -1.983733 -10.346862 7.283733 -6.177091 -5.217631 -6.602464 -16.859280 86.288728 -42.772500 -78.632074 -14.860835 -13.791802 10.258886 11.087688 -0.482876 4.859824 32.686879 -19.312892 22.281706 70.332054 63.686183 75.753064 15.067782 44.460257 -64.284244 
0.018359 0.479073 1.007205 179.346601 -0.464839 83.213219 7.058275 3.297694 7.641530 -5.581262 -8.460559 1.771958 -4.365164 11.463426 -4.691856 0.000000 -0.000000 0.000000 -4.328332 -2.839033 6.635623 3.116079 0.548217 7.221528 3.892910 -9.009836 -7.620694 0.000000 -0.000000 0.000000 -1.317055 -0.674004 6.218938 -4.137845 0.986564 1.177766 -0.138107 1.084202 -0.421422 -0.853543 -5.515855 -0.500873 8.032928 0.599612 -1.595382 -10.237331 7.304234 -6.254934 -4.948525 -6.745999 -17.019550 86.353201 -42.635428 -78.766966 -14.884108 -13.892693 10.034341 11.082714 -0.560674 4.766353 32.781868 -19.218990 22.330190 70.083213 63.635950 75.485078 15.488227 44.453136 -64.290405 
0.019263 0.479623 1.007143 179.489825 -0.401431 83.312542 7.194963 3.305105 7.650855 -5.560266 -8.620972 1.564555 -4.415037 11.445946 -4.601768 0.000000 -0.000000 0.000000 -4.224486 -2.857967 6.552373 3.196272 0.461001 7.282160 3.882528 -9.085770 -7.697454 0.000000 -0.000000 0.000000 -1.582482 -0.687088 5.925385 -4.287954 0.948372 0.922718 -0.259889 1.097485 -0.418184 -0.973898 -5.396067 -0.375961 7.889329 0.396528 -1.050390 -9.974784 7.339209 -6.336099 -4.588127 -7.007847 -17.171060 86.382068 -42.494023 -78.911705 -14.586639 -13.887250 10.207837 11.133596 -0.641048 4.634203 33.018411 -19.145474 22.395726 69.509960 63.503716 74.939003 15.635321 44.428498 -64.213264 
0.020614 0.480835 1.007242 179.499906 -0.340591 83.436070 7.356995 3.246220 7.751453 -5.545874 -8.705704 1.280298 -4.464413 11.522307 -4.539987 0.000000 -0.000000 0.000000 -4.088603 -2.881389 6.576175 3.211734 0.389593 7.173320 3.899152 -9.027004 -7.731990 0.000000 -0.000000 0.000000 -1.849201 -0.665694 5.536038 -4.514029 0.974796 0.510873 -0.411383 1.131004 -0.429695 -1.247802 -5.064994 -0.603633 7.567339 0.205263 -0.790018 -9.647119 7.443760 -6.416913 -4.311506 -7.303484 -17.405462 86.437332 -42.335378 -78.752945 -14.181971 -14.043656 10.180241 11.061452 -0.664866 4.655239 33.521457 -18.868779 22.456320 68.463647 63.094274 74.320176 15.090006 44.422205 -64.407556 
0.021960 0.482341 1.007316 179.398914 -0.281383 83.540019 7.400549 3.167177 7.709218 -5.418191 -8.465367 1.370851 -4.456635 11.475221 -4.632879 0.000000 -0.000000 0.000000 -3.973030 -2.919846 6.599427 3.267072 0.462935 7.087197 3.928944 -8.959210 -7.748632 0.000000 -0.000000 0.000000 -2.119559 -0.602841 4.991327 -4.810045 1.063249 0.200219 -0.576720 1.261089 -0.395736 -1.623949 -4.785184 -1.285705 7.309684 0.110763 -0.983669 -9.363160 7.662617 -6.700948 -3.991107 -7.831014 -17.717708 86.504614 -42.250972 -78.969192 -14.039962 -14.134480 10.117082 11.082791 -0.726533 4.431044 34.029599 -18.726836 22.585543 67.082102 62.748903 72.944586 15.542419 44.429810 -64.076783 
